<svg width="24" height="24" viewBox="0 0 24 24" fill="none" xmlns="http://www.w3.org/2000/svg">
<path d="M7.625 21C7.17813 21 6.79544 20.8413 6.47694 20.524C6.15844 20.2067 5.99946 19.8257 6 19.381V11.2857C6 10.8405 6.15925 10.4592 6.47775 10.1419C6.79625 9.82452 7.17867 9.66613 7.625 9.66667H8.4375V8.04762C8.4375 6.92778 8.83373 5.97308 9.62619 5.18352C10.4186 4.39397 11.3766 3.99946 12.5 4C13.624 4 14.5822 4.39478 15.3746 5.18433C16.1671 5.97389 16.563 6.92832 16.5625 8.04762V9.66667H17.375C17.8219 9.66667 18.2046 9.82533 18.5231 10.1427C18.8416 10.46 19.0005 10.841 19 11.2857V19.381C19 19.8262 18.8407 20.2075 18.5222 20.5248C18.2037 20.8421 17.8213 21.0005 17.375 21H7.625ZM7.625 19.381H17.375V11.2857H7.625V19.381ZM12.5 16.9524C12.9469 16.9524 13.3296 16.7937 13.6481 16.4764C13.9666 16.159 14.1255 15.778 14.125 15.3333C14.125 14.8881 13.9657 14.5068 13.6472 14.1895C13.3287 13.8721 12.9463 13.7137 12.5 13.7143C12.0531 13.7143 11.6704 13.873 11.3519 14.1903C11.0334 14.5076 10.8745 14.8886 10.875 15.3333C10.875 15.7786 11.0343 16.1599 11.3528 16.4772C11.6713 16.7945 12.0537 16.9529 12.5 16.9524ZM10.0625 9.66667H14.9375V8.04762C14.9375 7.37302 14.7005 6.7996 14.2266 6.32738C13.7526 5.85516 13.1771 5.61905 12.5 5.61905C11.8229 5.61905 11.2474 5.85516 10.7734 6.32738C10.2995 6.7996 10.0625 7.37302 10.0625 8.04762V9.66667Z" fill="#A9ADB2"/>
</svg>
